<svg width="33" height="30" viewBox="0 0 33 30" fill="none" xmlns="http://www.w3.org/2000/svg">
<path d="M30.7529 16.0557C31.0649 16.2962 31.4858 16.5 32 16.5C32.237 16.5 32.3372 16.5874 32.3945 16.667C32.4702 16.7721 32.5 16.9134 32.5 17V26C32.5 26.237 32.4126 26.3372 32.333 26.3945C32.2279 26.4702 32.0866 26.5 32 26.5H31.5C31.2222 26.5 30.9942 26.6303 30.8262 26.7773C30.9529 26.4772 31 26.195 31 26V17C31 16.6367 30.8972 16.3205 30.7529 16.0557ZM2.84473 13.3555C3.08171 13.4622 3.32041 13.5 3.5 13.5H29.5C29.737 13.5 29.8372 13.5874 29.8945 13.667C29.9702 13.7721 30 13.9134 30 14V15.1182L30.0527 15.2236C30.063 15.2441 30.0759 15.2644 30.0879 15.2861C29.9571 15.1852 29.8312 15.1065 29.7236 15.0527L29.6182 15H3.51953C3.51069 14.9956 3.49057 14.9845 3.45996 14.958C3.39479 14.9015 3.31724 14.8073 3.24121 14.6807C3.08029 14.4125 3 14.1271 3 14C3 13.7626 2.92981 13.5407 2.84473 13.3555ZM0.948242 3.50391C1.34592 3.61938 1.69938 3.62598 2 3.53223V12C2 12.1843 2.0289 12.3504 2.07617 12.5H2C0.578386 12.5 0.503863 11.9697 0.5 11.9902V4C0.5 3.76296 0.587407 3.66277 0.666992 3.60547C0.753053 3.54352 0.863564 3.51324 0.948242 3.50391ZM30.7432 2.82324C30.9122 2.98818 31.1005 3.14273 31.291 3.26074C31.4726 3.37317 31.7181 3.49115 31.9766 3.49805C31.981 3.49974 31.9956 3.50548 32.0205 3.52246C32.0712 3.55698 32.1352 3.61657 32.208 3.70117C32.324 3.83605 32.4267 3.99972 32.5 4.13086V6.5H31V4C31 3.51989 30.9043 3.1305 30.7432 2.82324ZM3 28.4189L2.97461 28.3418C2.87666 28.048 2.67524 27.6162 2.375 27.2471C2.08151 26.8863 1.62063 26.5 1 26.5C0.76296 26.5 0.66277 26.4126 0.605469 26.333C0.52983 26.2279 0.5 26.0866 0.5 26V23.5H2V26C2 27.0532 2.7698 27.7233 3.15137 27.9365L3.26465 28H29.6182L29.7236 27.9473C29.9526 27.8328 30.1418 27.6929 30.2998 27.542C30.1149 27.9652 30 28.4829 30 29C30 29.237 29.9126 29.3372 29.833 29.3945C29.7279 29.4702 29.5866 29.5 29.5 29.5H4C3.56315 29.5 3.33838 29.3292 3.20605 29.1455C3.0554 28.9363 3 28.67 3 28.5V28.4189ZM3 1.93848L2.98535 1.87891C2.82238 1.22703 3.00293 0.930594 3.17969 0.775391C3.39978 0.582168 3.7405 0.5 4 0.5H29C29.3141 0.500004 29.5558 0.651762 29.7344 0.875C29.9256 1.11408 30 1.38162 30 1.5C30 1.76698 30.1235 2.02093 30.2393 2.20801C30.2533 2.2307 30.2692 2.25277 30.2842 2.27539C30.0231 2.08098 29.7362 2 29.5 2H3.5C3.31409 2 3.14668 2.02911 2.99609 2.07715C2.99726 2.05045 3 2.02475 3 2V1.93848Z" fill="white" stroke="white"/>
<path d="M16.967 7.00736C16.9716 6.97435 17.0284 6.97435 17.033 7.00736C17.1577 7.89717 17.6645 10.8632 19.0257 12.2243C20.3868 13.5855 23.3528 14.0923 24.2426 14.217C24.2756 14.2216 24.2756 14.2784 24.2426 14.283C23.3528 14.4077 20.3868 14.9145 19.0257 16.2757C17.6645 17.6368 17.1577 20.6028 17.033 21.4926C17.0284 21.5256 16.9716 21.5256 16.967 21.4926C16.8423 20.6028 16.3355 17.6368 14.9743 16.2757C13.6132 14.9145 10.6472 14.4077 9.75736 14.283C9.72435 14.2784 9.72435 14.2216 9.75736 14.217C10.6472 14.0923 13.6132 13.5855 14.9743 12.2243C16.3355 10.8632 16.8423 7.89717 16.967 7.00736Z" fill="white"/>
</svg>
